# xmcd
#
# Track frame offsets:
#	150
#	18903
#	35101
#	53917
#	70450
#	89156
#	107932
#	123135
#	138550
#	158059
#	173206
#	189823
#	209902
#	229186
#
# Disc length: 3310 seconds
#
# Revision: 0
# Processed by: cddbd v1.5.1PL0 Copyright (c) Steve Scherf et al.
# Submitted via: dBpowerAMP V4.0
#
DISCID=ce0cec0e
DTITLE=3DOVZ - 3DVOZ
DYEAR=2004
DGENRE=R&B
TTITLE0=01 EL TIEMPO PASA (feat. Niko Noki)
TTITLE1=02 FIESTA (feat. Niko Noki)
TTITLE2=03 GRACIAS
TTITLE3=04 LA DISTANCIA
TTITLE4=05 HÁBLAME
TTITLE5=06 DÉJATE NOTAR
TTITLE6=07 NO ME ENGAÑAS
TTITLE7=08 TÓMALO
TTITLE8=09 COMO LO QUIERAS
TTITLE9=10 SEÑORITA HISPANA
TTITLE10=11 MUEVETE
TTITLE11=12 NO TUVE VALOR
TTITLE12=13 CONFUSION
TTITLE13=14 EL TIEMPO PASA (REMIX) 
EXTD=
EXTT0=
EXTT1=
EXTT2=
EXTT3=
EXTT4=
EXTT5=
EXTT6=
EXTT7=
EXTT8=
EXTT9=
EXTT10=
EXTT11=
EXTT12=
EXTT13=
PLAYORDER=
